<?xml version="1.0" standalone="no"?>
<!DOCTYPE svg PUBLIC "-//W3C//DTD SVG 20010904//EN"
 "http://www.w3.org/TR/2001/REC-SVG-20010904/DTD/svg10.dtd">
<svg version="1.0" xmlns="http://www.w3.org/2000/svg"
 width="82.000000pt" height="97.000000pt" viewBox="0 0 82.000000 97.000000"
 preserveAspectRatio="xMidYMid meet">
<metadata>
Created by potrace 1.10, written by Peter Selinger 2001-2011
</metadata>
<g transform="translate(0.000000,97.000000) scale(0.100000,-0.100000)"
fill="#ffffff" stroke="none">
<path d="M460 801 c-57 -12 -128 -56 -155 -97 l-15 -23 35 15 c19 8 59 14 90
14 150 0 259 -144 220 -292 -11 -44 -11 -46 6 -37 28 14 76 90 89 138 42 156
-109 314 -270 282z"/>
<path d="M166 718 c-126 -147 -117 -350 22 -480 126 -118 339 -118 462 -2 l45
43 -55 -20 c-79 -30 -204 -23 -278 15 -122 62 -183 155 -189 291 -4 62 0 93
16 138 11 31 18 57 16 57 -2 0 -20 -19 -39 -42z"/>
</g>
</svg>
