<svg xmlns="http://www.w3.org/2000/svg" width="512" height="512" viewBox="0 0 512 512" version="1.1"><path d="M 248.500 454 C 249.353 455.650, 250.276 457, 250.551 457 C 250.826 457, 250.353 455.650, 249.500 454 C 248.647 452.350, 247.724 451, 247.449 451 C 247.174 451, 247.647 452.350, 248.500 454" stroke="none" fill="#fcfcf4" fill-rule="evenodd"/><path d="M 428.317 24.750 C 385.147 64.084, 334.149 116.285, 305.916 150.041 C 278.890 182.354, 257.951 214.444, 244.098 244.781 C 237.139 260.019, 235.432 264.341, 230.384 279.500 C 228.003 286.650, 226.314 290.658, 226.630 288.406 C 227.184 284.467, 226.923 283.977, 219.717 275.406 C 210.079 263.942, 185.527 239.964, 171.725 228.535 C 136.779 199.598, 57.941 143.631, 57.208 147.240 C 57.047 148.031, 58.035 152.108, 59.403 156.299 C 61.788 163.606, 64.722 176.758, 66.810 189.500 C 67.384 192.999, 67.632 211.131, 67.407 233 C 66.900 282.142, 68.338 296.643, 76.542 325.146 C 83.748 350.180, 100.599 387.679, 115.050 410.835 C 139.084 449.346, 183.524 487.676, 214.421 496.542 C 220.588 498.312, 234.188 498.220, 235.995 496.397 C 236.874 495.511, 224.556 472.071, 221.846 469.473 C 221.106 468.763, 209.199 464.268, 195.387 459.485 C 181.575 454.701, 169.760 450.470, 169.132 450.082 C 168.504 449.694, 158.815 432.979, 147.600 412.938 L 127.210 376.500 123.948 376.775 C 122.153 376.927, 118.283 376.352, 115.347 375.499 C 94.780 369.520, 92.327 341.837, 111.530 332.441 C 118.147 329.204, 123.999 329.084, 130.878 332.043 C 144.846 338.052, 149.176 355.391, 139.879 368.086 C 138.924 369.390, 141.985 375.525, 157.043 402.495 C 167.123 420.548, 176.299 436.366, 177.435 437.647 C 179.524 440.002, 209.361 450.973, 210.521 449.812 C 210.827 449.506, 193.341 417.594, 171.662 378.897 L 132.247 308.539 125.999 307.274 C 115.756 305.201, 109.770 300.245, 106.970 291.520 C 104.112 282.614, 106.646 273.242, 113.556 267.160 C 122.735 259.080, 134.918 258.958, 144.143 266.855 C 152.182 273.736, 154.361 285.007, 149.504 294.581 C 148.131 297.286, 147.021 299.950, 147.037 300.500 C 147.086 302.153, 185.693 370.398, 186.787 370.762 C 187.964 371.155, 188.296 368.930, 191.456 339.500 C 192.815 326.850, 193.462 316.862, 192.980 316 C 192.370 314.910, 190.277 314.477, 185.321 314.414 C 180.495 314.354, 177.310 313.717, 174.432 312.237 C 157.145 303.347, 156.855 279.399, 173.929 270.750 C 186.764 264.249, 201.800 270.161, 206.344 283.496 C 208.754 290.570, 208.419 294.842, 204.900 301.884 L 201.800 308.087 204.561 313.360 L 207.322 318.633 203.161 356.359 L 199 394.086 224.228 439.050 C 238.103 463.781, 249.899 483.867, 250.442 483.686 C 250.985 483.505, 253.072 480.321, 255.081 476.609 C 257.605 471.946, 258.919 470.346, 259.335 471.431 C 261.054 475.910, 263.047 471.585, 273.521 440.644 L 284.474 408.287 282.849 403.394 C 281.955 400.702, 275.071 380.360, 267.550 358.188 L 253.875 317.876 263.491 289.028 L 273.106 260.181 269.142 254.943 C 264.086 248.263, 262.611 242.956, 263.212 233.601 C 263.941 222.233, 270 213.565, 280.500 208.864 C 295.205 202.282, 313.648 209.520, 320.091 224.401 C 324.871 235.442, 321.808 250.571, 313.275 258.063 C 308.654 262.120, 300.430 265.978, 296.372 265.990 C 294.652 265.996, 292.809 266.563, 292.277 267.250 C 291.745 267.938, 287.546 279.545, 282.947 293.044 L 274.585 317.589 284.292 345.961 C 289.631 361.565, 294.224 374.558, 294.500 374.833 C 294.775 375.108, 295.213 375.121, 295.473 374.861 C 296.190 374.144, 356 197.022, 356 195.616 C 356 194.943, 354.370 192.842, 352.378 190.946 C 344.592 183.540, 341.811 170.780, 345.575 159.734 C 347.653 153.636, 354.021 146.544, 360.377 143.250 C 364.667 141.026, 366.801 140.594, 373.500 140.589 C 383.048 140.583, 388.781 142.781, 394.726 148.726 C 400.883 154.883, 403.434 161.100, 403.454 170 C 403.473 178.591, 401.407 184.189, 395.903 190.457 C 392.056 194.839, 382.037 199.998, 377.372 199.999 C 375.652 200, 373.778 200.562, 373.208 201.250 C 372.270 202.382, 364.275 225.666, 336.406 308.433 C 331.233 323.797, 327 336.734, 327 337.183 C 327 337.633, 327.625 338, 328.390 338 C 330.886 338, 377.440 321.991, 378.614 320.729 C 379.785 319.470, 395 276.021, 395 273.935 C 395 273.300, 392.753 270.322, 390.007 267.317 C 376.595 252.642, 380.783 229.081, 398.318 220.563 C 422.517 208.809, 448.079 230.578, 440.538 256.517 C 438.129 264.806, 429.808 273.075, 421.441 275.497 C 418.174 276.442, 414.882 277.518, 414.127 277.887 C 413.372 278.255, 408.987 289.569, 404.382 303.029 C 399.777 316.488, 395.306 329.384, 394.447 331.686 L 392.883 335.872 356.515 347.995 C 336.513 354.662, 319.657 360.708, 319.058 361.431 C 317.729 363.031, 276.791 483.684, 276.621 486.500 C 276.533 487.953, 277.868 489.184, 281.500 491 C 291.884 496.192, 305.289 493.780, 322.176 483.680 C 347.666 468.435, 380.464 433.824, 401.473 400 C 422.033 366.898, 439.344 319.411, 449.409 268.500 C 453.945 245.555, 455 233.763, 455 206 C 455 176.091, 454.214 168.618, 447.002 130 C 438.794 86.050, 438.556 84.029, 438.558 58.500 C 438.560 41.139, 438.975 33.269, 440.254 26.399 C 441.186 21.393, 442.233 16.556, 442.581 15.649 C 444.115 11.653, 439.367 14.682, 428.317 24.750 M 363.907 152.324 C 346.322 161.599, 351.762 188.290, 371.720 190.653 C 378.728 191.483, 386.862 187.677, 390.801 181.725 C 393.149 178.177, 393.500 176.639, 393.500 169.916 C 393.500 162.768, 393.267 161.896, 390.405 158.343 C 383.635 149.938, 373.009 147.524, 363.907 152.324 M 282.907 218.327 C 271.181 224.517, 268.500 239.666, 277.347 249.743 C 287.268 261.042, 304.074 258.576, 311.107 244.790 C 315.677 235.832, 311.648 223.480, 302.458 218.275 C 296.982 215.173, 288.840 215.195, 282.907 218.327 M 404 228.118 C 400.727 229.417, 395.239 234.720, 393.256 238.500 C 389.374 245.900, 392.337 258.178, 399.241 263.304 C 406.387 268.610, 413.094 269.252, 420.871 265.377 C 429.648 261.003, 434.189 251.606, 431.905 242.539 C 430.581 237.279, 425.407 230.896, 420.632 228.630 C 416.843 226.832, 407.934 226.558, 404 228.118 M 123.001 269.069 C 111.250 274.010, 109.444 290.473, 119.875 297.561 C 122.611 299.420, 124.780 300, 129 300 C 145.162 300, 151.039 280.489, 137.824 270.702 C 134.724 268.406, 126.684 267.520, 123.001 269.069 M 176.989 277.250 C 170.891 280.344, 167.461 286.917, 168.462 293.592 C 169.860 302.916, 179.341 309.297, 188.263 306.919 C 202.854 303.029, 205.061 283.565, 191.647 277.071 C 186.152 274.411, 182.497 274.456, 176.989 277.250 M 224.500 296 C 224.120 297.729, 224.018 299.351, 224.273 299.606 C 224.528 299.861, 225.024 298.632, 225.375 296.875 C 226.209 292.707, 225.401 291.899, 224.500 296 M 219.232 328 C 219.232 329.925, 219.438 330.712, 219.689 329.750 C 219.941 328.788, 219.941 327.212, 219.689 326.250 C 219.438 325.288, 219.232 326.075, 219.232 328 M 114.274 339.036 C 106.243 343.120, 103.182 352.179, 107.193 359.992 C 110.348 366.136, 114.897 369, 121.500 369 C 133.242 369, 140.692 358.339, 136.543 347.474 C 133.074 338.391, 123.029 334.585, 114.274 339.036 M 248.500 454 C 249.353 455.650, 250.276 457, 250.551 457 C 250.826 457, 250.353 455.650, 249.500 454 C 248.647 452.350, 247.724 451, 247.449 451 C 247.174 451, 247.647 452.350, 248.500 454" stroke="none" fill="#fcfcfc" fill-rule="evenodd"/></svg>